<?xml version="1.0" encoding="iso-8859-1"?>
<!-- Generator: Adobe Illustrator 19.0.0, SVG Export Plug-In . SVG Version: 6.00 Build 0)  -->
<svg version="1.1" id="Layer_1" xmlns="http://www.w3.org/2000/svg" xmlns:xlink="http://www.w3.org/1999/xlink" x="0px" y="0px"
	 viewBox="0 0 512 512" style="enable-background:new 0 0 512 512;" xml:space="preserve">
<g>
	<path style="fill:#2D527C;" d="M256,512c-7.598,0-13.76-6.162-13.76-13.76v-25.869c0-7.598,6.162-13.76,13.76-13.76
		s13.76,6.162,13.76,13.76v25.869C269.76,505.838,263.598,512,256,512z"/>
	<path style="fill:#2D527C;" d="M256,442.883c-7.598,0-13.76-6.162-13.76-13.76V136.074c0-7.598,6.162-13.76,13.76-13.76
		s13.76,6.162,13.76,13.76v293.05C269.76,436.723,263.598,442.883,256,442.883z"/>
	<path style="fill:#2D527C;" d="M308.947,393.6c-4.04,0-8.04-1.768-10.756-5.168c-4.746-5.935-3.78-14.594,2.155-19.34
		c10.958-8.761,20.727-20.461,28.566-34.159l-28.209-34.147c-2.66-3.22-3.712-7.473-2.863-11.56
		c0.848-4.089,3.507-7.571,7.228-9.466l44.877-22.854c0.061-1.921,0.089-3.835,0.089-5.73c0-16.599-4.094-38.214-11.872-62.827
		l-45.372-15.663c-7.184-2.48-10.997-10.313-8.516-17.496c2.48-7.184,10.32-11.003,17.496-8.516l51.846,17.896
		c4.04,1.395,7.201,4.586,8.559,8.639c10.206,30.476,15.381,56.709,15.381,77.967c0,5.058-0.187,10.228-0.553,15.364
		c-0.344,4.81-3.183,9.09-7.481,11.279l-36.666,18.672l23.135,28.006c3.451,4.178,4.128,9.993,1.731,14.853
		c-10.187,20.646-24.084,38.363-40.189,51.237C314.995,392.615,311.959,393.6,308.947,393.6z"/>
	<path style="fill:#2D527C;" d="M256,414.444c-5.809,0-11.633-0.666-17.306-1.983c-34.689-8.045-65.456-34.693-84.414-73.111
		c-2.397-4.859-1.72-10.675,1.731-14.853l23.135-28.006l-36.665-18.672c-4.297-2.189-7.136-6.466-7.481-11.276
		c-0.369-5.131-0.555-10.301-0.555-15.367c0-21.258,5.175-47.49,15.381-77.968c1.357-4.051,4.519-7.243,8.559-8.636l51.846-17.899
		c7.174-2.474,15.016,1.332,17.496,8.517c2.481,7.183-1.333,15.016-8.516,17.496l-45.372,15.664
		c-7.779,24.611-11.872,46.227-11.872,62.826c0,1.895,0.029,3.809,0.089,5.73l44.877,22.854c3.721,1.895,6.381,5.377,7.228,9.466
		c0.849,4.088-0.204,8.341-2.863,11.56l-28.211,34.148c15.311,26.777,37.488,45.075,61.824,50.718
		c3.64,0.844,7.37,1.271,11.091,1.271c7.598,0,13.76,6.162,13.76,13.76S263.598,414.444,256,414.444z"/>
</g>
<path style="fill:#CEE8FA;" d="M256,214.72l69.73-94.86C299.864,64.95,256,13.76,256,13.76s-43.864,51.19-69.729,106.1L256,214.72z"
	/>
<path style="fill:#2D527C;" d="M256,228.48c-4.378,0-8.494-2.083-11.088-5.61l-69.73-94.86c-2.99-4.067-3.513-9.446-1.361-14.015
	c26.355-55.946,69.89-107.041,71.73-109.189C248.164,1.756,251.982,0,256,0s7.834,1.756,10.449,4.806
	c1.84,2.148,45.375,53.242,71.73,109.189c2.151,4.567,1.629,9.947-1.361,14.015l-69.73,94.86
	C264.493,226.397,260.378,228.48,256,228.48z M202.281,118.411L256,191.487l53.718-73.077C292.684,84.576,269.328,52.719,256,35.649
	C242.672,52.719,219.315,84.576,202.281,118.411z"/>
<g>
</g>
<g>
</g>
<g>
</g>
<g>
</g>
<g>
</g>
<g>
</g>
<g>
</g>
<g>
</g>
<g>
</g>
<g>
</g>
<g>
</g>
<g>
</g>
<g>
</g>
<g>
</g>
<g>
</g>
</svg>
