<?xml version="1.0" encoding="iso-8859-1"?>
<!-- Generator: Adobe Illustrator 19.0.0, SVG Export Plug-In . SVG Version: 6.00 Build 0)  -->
<svg version="1.1" id="Layer_1" xmlns="http://www.w3.org/2000/svg" xmlns:xlink="http://www.w3.org/1999/xlink" x="0px" y="0px"
	 viewBox="0 0 512 512" style="enable-background:new 0 0 512 512;" xml:space="preserve">
<pattern  x="-50" y="652" width="38.246" height="38.246" patternUnits="userSpaceOnUse" id="New_Pattern_Swatch_100" viewBox="0 -38.246 38.246 38.246" style="overflow:visible;">
	<g>
		<polygon style="fill:none;" points="0,0 38.246,0 38.246,-38.246 0,-38.246 		"/>
		<polygon style="fill:none;" points="0,-38.246 38.246,-38.246 38.246,0 0,0 		"/>
		<polygon style="fill:#3B887E;" points="38.246,-38.246 0,-38.246 0,0 38.246,0 		"/>
	</g>
</pattern>
<path style="fill:#787680;" d="M296.171,247.076h-38.494h-41.849c-9.241,0-16.732,7.491-16.732,16.732v97.046
	c0,9.241,7.491,16.732,16.732,16.732h41.849h38.494c9.241,0,16.732-7.492,16.732-16.732v-97.046
	C312.903,254.568,305.412,247.076,296.171,247.076z"/>
<path style="fill:#ACABB1;" d="M215.829,247.076c-9.241,0-16.732,7.491-16.732,16.732v97.046c0,9.241,7.491,16.732,16.732,16.732
	h41.849v-130.51H215.829z"/>
<g>
	<path style="fill:#3E3D42;" d="M324.044,344.122h-66.366h-69.721c-36.29,0-65.813,29.523-65.813,65.813
		c0,9.241,7.491,16.732,16.732,16.732h118.802h115.447c9.241,0,16.732-7.491,16.732-16.732
		C389.856,373.645,360.333,344.122,324.044,344.122z"/>
	<path style="fill:#3E3D42;" d="M257.678,268.272H108.116v18.09c0,11.318,9.175,20.492,20.492,20.492h129.07h125.714
		c11.318,0,20.492-9.175,20.492-20.492v-18.09H257.678z"/>
</g>
<g>
	<path style="fill:#57565C;" d="M187.956,344.122c-36.29,0-65.813,29.523-65.813,65.813c0,9.241,7.491,16.732,16.732,16.732h118.802
		v-82.545H187.956z"/>
	<path style="fill:#57565C;" d="M108.116,268.272v18.09c0,11.318,9.175,20.492,20.492,20.492h129.07v-38.582H108.116z"/>
</g>
<path style="fill:#00AA95;" d="M495.268,85.333h-237.59H16.732C7.491,85.333,0,92.825,0,102.065v161.743
	c0,9.241,7.491,16.732,16.732,16.732h240.946h237.59c9.241,0,16.732-7.491,16.732-16.732V102.065
	C512,92.825,504.508,85.333,495.268,85.333z"/>
<path style="fill:#00CCB3;" d="M16.732,85.333C7.491,85.333,0,92.825,0,102.065v161.743c0,9.241,7.491,16.732,16.732,16.732h240.946
	V85.333H16.732z"/>
<rect y="178.999" style="fill:#00AA94;" width="512" height="7.886"/>
<pattern  id="SVGID_1_" xlink:href="#New_Pattern_Swatch_100" patternTransform="matrix(1.1156 0 0 -1.1156 2189.385 -20736.3691)">
</pattern>
<rect x="258.253" y="178.999" style="fill:url(#SVGID_1_);" width="253.747" height="7.886"/>
<path style="fill:#57565C;" d="M157.196,182.937c0-26.912-21.662-48.754-48.501-49.066v98.132
	C135.534,231.691,157.196,209.849,157.196,182.937z"/>
<path style="fill:#3E3D42;" d="M59.035,182.937c0,27.107,21.974,49.081,49.081,49.081c0.194,0,0.386-0.012,0.58-0.015v-98.132
	c-0.194-0.002-0.386-0.015-0.58-0.015C81.01,133.856,59.035,155.83,59.035,182.937z"/>
<path style="fill:#57565C;" d="M306.758,182.937c0-26.912-21.662-48.754-48.501-49.066v98.132
	C285.096,231.691,306.758,209.849,306.758,182.937z"/>
<path style="fill:#3E3D42;" d="M208.597,182.937c0,27.107,21.974,49.081,49.081,49.081c0.194,0,0.386-0.012,0.58-0.015v-98.132
	c-0.194-0.002-0.386-0.015-0.58-0.015C230.571,133.856,208.597,155.83,208.597,182.937z"/>
<path style="fill:#57565C;" d="M455.534,182.937c0-18.309-14.738-33.168-32.996-33.38v66.762
	C440.796,216.105,455.534,201.246,455.534,182.937z"/>
<path style="fill:#3E3D42;" d="M388.752,182.937c0,18.441,14.95,33.39,33.39,33.39c0.133,0,0.263-0.009,0.395-0.01v-66.762
	c-0.132-0.001-0.262-0.01-0.395-0.01C403.701,149.546,388.752,164.496,388.752,182.937z"/>
<g>
	<circle style="fill:#2D2D30;" cx="108.691" cy="182.937" r="17.192"/>
	<circle style="fill:#2D2D30;" cx="257.673" cy="182.937" r="17.192"/>
	<circle style="fill:#2D2D30;" cx="422.138" cy="182.937" r="12.348"/>
</g>
<g>
</g>
<g>
</g>
<g>
</g>
<g>
</g>
<g>
</g>
<g>
</g>
<g>
</g>
<g>
</g>
<g>
</g>
<g>
</g>
<g>
</g>
<g>
</g>
<g>
</g>
<g>
</g>
<g>
</g>
</svg>
